<svg width="80" height="80" viewBox="0 0 80 80" fill="none" xmlns="http://www.w3.org/2000/svg">
<g clip-path="url(#clip0_21_81)">
<path d="M2.48797 53.9129C8.13969 69.1448 22.8014 80 40 80C57.1986 80 71.8603 69.1448 77.512 53.9129L40 50.4348L2.48797 53.9129Z" fill="#FFDA44"/>
<path d="M40 0C22.8014 0 8.13969 10.855 2.48797 26.087L40 29.5652L77.512 26.0869C71.8603 10.855 57.1986 0 40 0Z" fill="black"/>
<path d="M2.48797 26.087C0.880156 30.4203 0 35.1072 0 40C0 44.8928 0.880156 49.5797 2.48797 53.913H77.5122C79.12 49.5797 80 44.8928 80 40C80 35.1072 79.12 30.4203 77.512 26.087H2.48797Z" fill="#D80027"/>
</g>
<defs>
<clipPath id="clip0_21_81">
<rect width="80" height="80" fill="white"/>
</clipPath>
</defs>
</svg>
