<svg width="80" height="80" viewBox="0 0 80 80" fill="none" xmlns="http://www.w3.org/2000/svg">
<g clip-path="url(#clip0_21_91)">
<path d="M40 80C62.0914 80 80 62.0914 80 40C80 17.9086 62.0914 0 40 0C17.9086 0 0 17.9086 0 40C0 62.0914 17.9086 80 40 80Z" fill="#F0F0F0"/>
<path d="M8.26874 15.6472C5.12671 19.7352 2.75749 24.4469 1.37796 29.5655H22.187L8.26874 15.6472Z" fill="#0052B4"/>
<path d="M78.622 29.5655C77.2425 24.447 74.8731 19.7353 71.7312 15.6473L57.8133 29.5655H78.622Z" fill="#0052B4"/>
<path d="M1.37796 50.435C2.75765 55.5534 5.12687 60.2652 8.26874 64.353L22.1866 50.435H1.37796Z" fill="#0052B4"/>
<path d="M64.3528 8.26893C60.2648 5.1269 55.5533 2.75768 50.4347 1.37799V22.1869L64.3528 8.26893Z" fill="#0052B4"/>
<path d="M15.6472 71.7311C19.7352 74.8731 24.4469 77.2424 29.5653 78.622V57.8133L15.6472 71.7311Z" fill="#0052B4"/>
<path d="M29.5652 1.37799C24.4467 2.75768 19.735 5.1269 15.6472 8.26877L29.5652 22.1867V1.37799Z" fill="#0052B4"/>
<path d="M50.4348 78.622C55.5533 77.2424 60.265 74.8731 64.3528 71.7313L50.4348 57.8133V78.622Z" fill="#0052B4"/>
<path d="M57.8133 50.435L71.7312 64.3531C74.8731 60.2653 77.2425 55.5534 78.622 50.435H57.8133Z" fill="#0052B4"/>
<path d="M79.6614 34.7827H45.2177H45.2175V0.338594C43.5095 0.11625 41.7683 0 40 0C38.2314 0 36.4905 0.11625 34.7827 0.338594V34.7823V34.7825H0.338594C0.11625 36.4905 0 38.2317 0 40C0 41.7686 0.11625 43.5095 0.338594 45.2173H34.7823H34.7825V79.6614C36.4905 79.8838 38.2314 80 40 80C41.7683 80 43.5095 79.8839 45.2173 79.6614V45.2177V45.2175H79.6614C79.8838 43.5095 80 41.7686 80 40C80 38.2317 79.8838 36.4905 79.6614 34.7827V34.7827Z" fill="#D80027"/>
<path d="M50.4348 50.435L68.2842 68.2843C69.1052 67.4637 69.8883 66.6058 70.6355 65.7164L55.3539 50.4348H50.4348V50.435Z" fill="#D80027"/>
<path d="M29.5652 50.435H29.5649L11.7156 68.2842C12.5363 69.1052 13.3942 69.8883 14.2836 70.6355L29.5652 55.3536V50.435Z" fill="#D80027"/>
<path d="M29.5652 29.5655V29.5652L11.7158 11.7156C10.8948 12.5363 10.1117 13.3942 9.36453 14.2836L24.6463 29.5653H29.5652V29.5655Z" fill="#D80027"/>
<path d="M50.4348 29.5655L68.2844 11.7158C67.4638 10.8948 66.6058 10.1117 65.7164 9.36469L50.4348 24.6464V29.5655Z" fill="#D80027"/>
</g>
<defs>
<clipPath id="clip0_21_91">
<rect width="80" height="80" fill="white"/>
</clipPath>
</defs>
</svg>
