<svg width="80" height="80" viewBox="0 0 80 80" fill="none" xmlns="http://www.w3.org/2000/svg">
<g clip-path="url(#clip0_21_69)">
<path d="M40 80C62.0914 80 80 62.0914 80 40C80 17.9086 62.0914 0 40 0C17.9086 0 0 17.9086 0 40C0 62.0914 17.9086 80 40 80Z" fill="#F0F0F0"/>
<path d="M40 0C22.8014 0 8.1397 10.855 2.48798 26.087H77.5122C71.8603 10.855 57.1986 0 40 0V0Z" fill="#A2001D"/>
<path d="M40 80C57.1986 80 71.8603 69.145 77.512 53.913H2.48798C8.13969 69.145 22.8014 80 40 80Z" fill="#0052B4"/>
</g>
<defs>
<clipPath id="clip0_21_69">
<rect width="80" height="80" fill="white"/>
</clipPath>
</defs>
</svg>
